G04 #@! TF.GenerationSoftware,KiCad,Pcbnew,(5.99.0-10089-gf88d39b4f0)*
G04 #@! TF.CreationDate,2021-04-05T01:24:07-04:00*
G04 #@! TF.ProjectId,BattlebotsController,42617474-6c65-4626-9f74-73436f6e7472,rev?*
G04 #@! TF.SameCoordinates,PXb795120PY57bcf00*
G04 #@! TF.FileFunction,Paste,Top*
G04 #@! TF.FilePolarity,Positive*
%FSLAX46Y46*%
G04 Gerber Fmt 4.6, Leading zero omitted, Abs format (unit mm)*
G04 Created by KiCad (PCBNEW (5.99.0-10089-gf88d39b4f0)) date 2021-04-05 01:24:07*
%MOMM*%
%LPD*%
G01*
G04 APERTURE LIST*
G04 Aperture macros list*
%AMRoundRect*
0 Rectangle with rounded corners*
0 $1 Rounding radius*
0 $2 $3 $4 $5 $6 $7 $8 $9 X,Y pos of 4 corners*
0 Add a 4 corners polygon primitive as box body*
4,1,4,$2,$3,$4,$5,$6,$7,$8,$9,$2,$3,0*
0 Add four circle primitives for the rounded corners*
1,1,$1+$1,$2,$3*
1,1,$1+$1,$4,$5*
1,1,$1+$1,$6,$7*
1,1,$1+$1,$8,$9*
0 Add four rect primitives between the rounded corners*
20,1,$1+$1,$2,$3,$4,$5,0*
20,1,$1+$1,$4,$5,$6,$7,0*
20,1,$1+$1,$6,$7,$8,$9,0*
20,1,$1+$1,$8,$9,$2,$3,0*%
%AMRotRect*
0 Rectangle, with rotation*
0 The origin of the aperture is its center*
0 $1 length*
0 $2 width*
0 $3 Rotation angle, in degrees counterclockwise*
0 Add horizontal line*
21,1,$1,$2,0,0,$3*%
%AMFreePoly0*
4,1,17,0.095000,0.280005,0.095001,0.280000,0.095001,-0.280000,0.087770,-0.316355,0.067176,-0.347175,0.036356,-0.367769,0.000001,-0.375000,-0.000001,-0.375000,-0.036356,-0.367769,-0.067176,-0.347175,-0.087770,-0.316355,-0.095001,-0.280000,-0.095001,0.280000,-0.095000,0.280005,-0.095000,0.375000,0.095000,0.375000,0.095000,0.280005,0.095000,0.280005,$1*%
%AMFreePoly1*
4,1,27,0.040969,0.197445,0.050845,0.197445,0.059397,0.192507,0.068934,0.189952,0.075916,0.182970,0.084467,0.178033,0.290533,-0.028033,0.295470,-0.036584,0.302452,-0.043566,0.305008,-0.053104,0.309944,-0.061654,0.309944,-0.071527,0.312500,-0.081066,0.312500,-0.125000,0.302452,-0.162500,0.275000,-0.189952,0.237500,-0.200000,-0.237500,-0.200000,-0.275000,-0.189952,-0.302452,-0.162500,
-0.312500,-0.125000,-0.312500,0.125000,-0.302452,0.162500,-0.275000,0.189952,-0.237500,0.200000,0.031434,0.200000,0.040969,0.197445,0.040969,0.197445,$1*%
%AMFreePoly2*
4,1,27,0.275000,0.189952,0.302452,0.162500,0.312500,0.125000,0.312500,0.081066,0.309944,0.071527,0.309944,0.061654,0.305008,0.053104,0.302452,0.043566,0.295470,0.036584,0.290533,0.028033,0.084467,-0.178033,0.075916,-0.182970,0.068934,-0.189952,0.059397,-0.192507,0.050845,-0.197445,0.040969,-0.197445,0.031434,-0.200000,-0.237500,-0.200000,-0.275000,-0.189952,-0.302452,-0.162500,
-0.312500,-0.125000,-0.312500,0.125000,-0.302452,0.162500,-0.275000,0.189952,-0.237500,0.200000,0.237500,0.200000,0.275000,0.189952,0.275000,0.189952,$1*%
%AMFreePoly3*
4,1,27,0.162500,0.302452,0.189952,0.275000,0.200000,0.237500,0.200000,-0.237500,0.189952,-0.275000,0.162500,-0.302452,0.125000,-0.312500,-0.125000,-0.312500,-0.162500,-0.302452,-0.189952,-0.275000,-0.200000,-0.237500,-0.200000,0.031434,-0.197445,0.040969,-0.197445,0.050845,-0.192507,0.059397,-0.189952,0.068934,-0.182970,0.075916,-0.178033,0.084467,0.028033,0.290533,0.036584,0.295470,
0.043566,0.302452,0.053104,0.305008,0.061654,0.309944,0.071527,0.309944,0.081066,0.312500,0.125000,0.312500,0.162500,0.302452,0.162500,0.302452,$1*%
%AMFreePoly4*
4,1,27,-0.071531,0.309945,-0.061655,0.309945,-0.053103,0.305007,-0.043566,0.302452,-0.036584,0.295470,-0.028033,0.290533,0.178033,0.084467,0.182970,0.075916,0.189952,0.068934,0.192508,0.059396,0.197444,0.050846,0.197444,0.040973,0.200000,0.031434,0.200000,-0.237500,0.189952,-0.275000,0.162500,-0.302452,0.125000,-0.312500,-0.125000,-0.312500,-0.162500,-0.302452,-0.189952,-0.275000,
-0.200000,-0.237500,-0.200000,0.237500,-0.189952,0.275000,-0.162500,0.302452,-0.125000,0.312500,-0.081066,0.312500,-0.071531,0.309945,-0.071531,0.309945,$1*%
%AMFreePoly5*
4,1,27,0.275000,0.189952,0.302452,0.162500,0.312500,0.125000,0.312500,-0.125000,0.302452,-0.162500,0.275000,-0.189952,0.237500,-0.200000,-0.031434,-0.200000,-0.040973,-0.197444,-0.050846,-0.197444,-0.059396,-0.192508,-0.068934,-0.189952,-0.075916,-0.182970,-0.084467,-0.178033,-0.290533,0.028033,-0.295470,0.036584,-0.302452,0.043566,-0.305007,0.053103,-0.309945,0.061655,-0.309945,0.071531,
-0.312500,0.081066,-0.312500,0.125000,-0.302452,0.162500,-0.275000,0.189952,-0.237500,0.200000,0.237500,0.200000,0.275000,0.189952,0.275000,0.189952,$1*%
%AMFreePoly6*
4,1,27,0.275000,0.189952,0.302452,0.162500,0.312500,0.125000,0.312500,-0.125000,0.302452,-0.162500,0.275000,-0.189952,0.237500,-0.200000,-0.237500,-0.200000,-0.275000,-0.189952,-0.302452,-0.162500,-0.312500,-0.125000,-0.312500,-0.081066,-0.309945,-0.071531,-0.309945,-0.061655,-0.305007,-0.053103,-0.302452,-0.043566,-0.295470,-0.036584,-0.290533,-0.028033,-0.084467,0.178033,-0.075916,0.182970,
-0.068934,0.189952,-0.059396,0.192508,-0.050846,0.197444,-0.040973,0.197444,-0.031434,0.200000,0.237500,0.200000,0.275000,0.189952,0.275000,0.189952,$1*%
%AMFreePoly7*
4,1,27,0.162500,0.302452,0.189952,0.275000,0.200000,0.237500,0.200000,-0.031434,0.197444,-0.040973,0.197444,-0.050846,0.192508,-0.059396,0.189952,-0.068934,0.182970,-0.075916,0.178033,-0.084467,-0.028033,-0.290533,-0.036584,-0.295470,-0.043566,-0.302452,-0.053103,-0.305007,-0.061655,-0.309945,-0.071531,-0.309945,-0.081066,-0.312500,-0.125000,-0.312500,-0.162500,-0.302452,-0.189952,-0.275000,
-0.200000,-0.237500,-0.200000,0.237500,-0.189952,0.275000,-0.162500,0.302452,-0.125000,0.312500,0.125000,0.312500,0.162500,0.302452,0.162500,0.302452,$1*%
%AMFreePoly8*
4,1,27,0.162500,0.302452,0.189952,0.275000,0.200000,0.237500,0.200000,-0.237500,0.189952,-0.275000,0.162500,-0.302452,0.125000,-0.312500,0.081066,-0.312500,0.071527,-0.309944,0.061654,-0.309944,0.053104,-0.305008,0.043566,-0.302452,0.036584,-0.295470,0.028033,-0.290533,-0.178033,-0.084467,-0.182970,-0.075916,-0.189952,-0.068934,-0.192507,-0.059397,-0.197445,-0.050845,-0.197445,-0.040969,
-0.200000,-0.031434,-0.200000,0.237500,-0.189952,0.275000,-0.162500,0.302452,-0.125000,0.312500,0.125000,0.312500,0.162500,0.302452,0.162500,0.302452,$1*%
G04 Aperture macros list end*
%ADD10C,0.010000*%
%ADD11RoundRect,0.140000X-0.170000X0.140000X-0.170000X-0.140000X0.170000X-0.140000X0.170000X0.140000X0*%
%ADD12RoundRect,0.140000X0.140000X0.170000X-0.140000X0.170000X-0.140000X-0.170000X0.140000X-0.170000X0*%
%ADD13RoundRect,0.140000X0.170000X-0.140000X0.170000X0.140000X-0.170000X0.140000X-0.170000X-0.140000X0*%
%ADD14RoundRect,0.140000X-0.140000X-0.170000X0.140000X-0.170000X0.140000X0.170000X-0.140000X0.170000X0*%
%ADD15RoundRect,0.218750X-0.218750X-0.256250X0.218750X-0.256250X0.218750X0.256250X-0.218750X0.256250X0*%
%ADD16RoundRect,0.150000X-0.150000X0.587500X-0.150000X-0.587500X0.150000X-0.587500X0.150000X0.587500X0*%
%ADD17RoundRect,0.135000X-0.135000X-0.185000X0.135000X-0.185000X0.135000X0.185000X-0.135000X0.185000X0*%
%ADD18RoundRect,0.135000X0.135000X0.185000X-0.135000X0.185000X-0.135000X-0.185000X0.135000X-0.185000X0*%
%ADD19RoundRect,0.135000X-0.185000X0.135000X-0.185000X-0.135000X0.185000X-0.135000X0.185000X0.135000X0*%
%ADD20R,1.350000X0.400000*%
%ADD21R,1.900000X1.500000*%
%ADD22RoundRect,0.250000X-0.250000X-0.475000X0.250000X-0.475000X0.250000X0.475000X-0.250000X0.475000X0*%
%ADD23RoundRect,0.250000X0.250000X0.475000X-0.250000X0.475000X-0.250000X-0.475000X0.250000X-0.475000X0*%
%ADD24RoundRect,0.250000X0.475000X-0.250000X0.475000X0.250000X-0.475000X0.250000X-0.475000X-0.250000X0*%
%ADD25R,2.050000X4.500000*%
%ADD26RoundRect,0.150000X0.587500X0.150000X-0.587500X0.150000X-0.587500X-0.150000X0.587500X-0.150000X0*%
%ADD27RoundRect,0.135000X0.185000X-0.135000X0.185000X0.135000X-0.185000X0.135000X-0.185000X-0.135000X0*%
%ADD28FreePoly0,270.000000*%
%ADD29FreePoly0,0.000000*%
%ADD30FreePoly0,90.000000*%
%ADD31FreePoly0,180.000000*%
%ADD32R,2.650000X1.850000*%
%ADD33R,1.310000X0.450000*%
%ADD34RoundRect,0.135000X0.035355X-0.226274X0.226274X-0.035355X-0.035355X0.226274X-0.226274X0.035355X0*%
%ADD35RoundRect,0.135000X-0.035355X0.226274X-0.226274X0.035355X0.035355X-0.226274X0.226274X-0.035355X0*%
%ADD36R,1.000000X0.900000*%
%ADD37R,0.550000X1.700000*%
%ADD38RotRect,0.400000X1.900000X225.000000*%
%ADD39RoundRect,0.150000X0.150000X-0.587500X0.150000X0.587500X-0.150000X0.587500X-0.150000X-0.587500X0*%
%ADD40RoundRect,0.207500X0.207500X-0.207500X0.207500X0.207500X-0.207500X0.207500X-0.207500X-0.207500X0*%
%ADD41RoundRect,0.062500X0.062500X-0.375000X0.062500X0.375000X-0.062500X0.375000X-0.062500X-0.375000X0*%
%ADD42RoundRect,0.062500X0.375000X-0.062500X0.375000X0.062500X-0.375000X0.062500X-0.375000X-0.062500X0*%
%ADD43RoundRect,0.218750X-0.256250X0.218750X-0.256250X-0.218750X0.256250X-0.218750X0.256250X0.218750X0*%
%ADD44RoundRect,0.250000X-0.475000X0.250000X-0.475000X-0.250000X0.475000X-0.250000X0.475000X0.250000X0*%
%ADD45R,2.500000X1.000000*%
%ADD46R,1.000000X1.800000*%
%ADD47RoundRect,0.150000X0.512500X0.150000X-0.512500X0.150000X-0.512500X-0.150000X0.512500X-0.150000X0*%
%ADD48FreePoly1,180.000000*%
%ADD49RoundRect,0.100000X0.212500X0.100000X-0.212500X0.100000X-0.212500X-0.100000X0.212500X-0.100000X0*%
%ADD50FreePoly2,180.000000*%
%ADD51FreePoly3,180.000000*%
%ADD52RoundRect,0.100000X0.100000X0.212500X-0.100000X0.212500X-0.100000X-0.212500X0.100000X-0.212500X0*%
%ADD53FreePoly4,180.000000*%
%ADD54FreePoly5,180.000000*%
%ADD55FreePoly6,180.000000*%
%ADD56FreePoly7,180.000000*%
%ADD57FreePoly8,180.000000*%
%ADD58R,0.350000X0.500000*%
%ADD59R,0.380000X0.430000*%
%ADD60R,0.400000X0.300000*%
%ADD61R,0.500000X0.500000*%
%ADD62RoundRect,0.250000X-0.550000X-0.250000X0.550000X-0.250000X0.550000X0.250000X-0.550000X0.250000X0*%
%ADD63RoundRect,0.150000X0.150000X-0.512500X0.150000X0.512500X-0.150000X0.512500X-0.150000X-0.512500X0*%
%ADD64RoundRect,0.250000X-0.255000X0.255000X-0.255000X-0.255000X0.255000X-0.255000X0.255000X0.255000X0*%
%ADD65RoundRect,0.062500X-0.062500X0.350000X-0.062500X-0.350000X0.062500X-0.350000X0.062500X0.350000X0*%
%ADD66RoundRect,0.062500X-0.350000X0.062500X-0.350000X-0.062500X0.350000X-0.062500X0.350000X0.062500X0*%
%ADD67R,0.250000X0.750000*%
G04 APERTURE END LIST*
D10*
G04 #@! TO.C,U8*
X43450000Y17550000D02*
X42630000Y17550000D01*
X42630000Y17550000D02*
X42630000Y18370000D01*
X42630000Y18370000D02*
X43450000Y18370000D01*
X43450000Y18370000D02*
X43450000Y17550000D01*
G36*
X43450000Y17550000D02*
G01*
X42630000Y17550000D01*
X42630000Y18370000D01*
X43450000Y18370000D01*
X43450000Y17550000D01*
G37*
X43450000Y17550000D02*
X42630000Y17550000D01*
X42630000Y18370000D01*
X43450000Y18370000D01*
X43450000Y17550000D01*
X42375000Y17025000D02*
X41475000Y17025000D01*
X41475000Y17025000D02*
X41475000Y17225000D01*
X41475000Y17225000D02*
X42375000Y17225000D01*
X42375000Y17225000D02*
X42375000Y17025000D01*
G36*
X42375000Y17025000D02*
G01*
X41475000Y17025000D01*
X41475000Y17225000D01*
X42375000Y17225000D01*
X42375000Y17025000D01*
G37*
X42375000Y17025000D02*
X41475000Y17025000D01*
X41475000Y17225000D01*
X42375000Y17225000D01*
X42375000Y17025000D01*
X44570000Y16430000D02*
X43750000Y16430000D01*
X43750000Y16430000D02*
X43750000Y17250000D01*
X43750000Y17250000D02*
X44570000Y17250000D01*
X44570000Y17250000D02*
X44570000Y16430000D01*
G36*
X44570000Y16430000D02*
G01*
X43750000Y16430000D01*
X43750000Y17250000D01*
X44570000Y17250000D01*
X44570000Y16430000D01*
G37*
X44570000Y16430000D02*
X43750000Y16430000D01*
X43750000Y17250000D01*
X44570000Y17250000D01*
X44570000Y16430000D01*
X45725000Y17575000D02*
X44825000Y17575000D01*
X44825000Y17575000D02*
X44825000Y17775000D01*
X44825000Y17775000D02*
X45725000Y17775000D01*
X45725000Y17775000D02*
X45725000Y17575000D01*
G36*
X45725000Y17575000D02*
G01*
X44825000Y17575000D01*
X44825000Y17775000D01*
X45725000Y17775000D01*
X45725000Y17575000D01*
G37*
X45725000Y17575000D02*
X44825000Y17575000D01*
X44825000Y17775000D01*
X45725000Y17775000D01*
X45725000Y17575000D01*
X42375000Y17575000D02*
X41475000Y17575000D01*
X41475000Y17575000D02*
X41475000Y17775000D01*
X41475000Y17775000D02*
X42375000Y17775000D01*
X42375000Y17775000D02*
X42375000Y17575000D01*
G36*
X42375000Y17575000D02*
G01*
X41475000Y17575000D01*
X41475000Y17775000D01*
X42375000Y17775000D01*
X42375000Y17575000D01*
G37*
X42375000Y17575000D02*
X41475000Y17575000D01*
X41475000Y17775000D01*
X42375000Y17775000D01*
X42375000Y17575000D01*
X44570000Y17550000D02*
X43750000Y17550000D01*
X43750000Y17550000D02*
X43750000Y18370000D01*
X43750000Y18370000D02*
X44570000Y18370000D01*
X44570000Y18370000D02*
X44570000Y17550000D01*
G36*
X44570000Y17550000D02*
G01*
X43750000Y17550000D01*
X43750000Y18370000D01*
X44570000Y18370000D01*
X44570000Y17550000D01*
G37*
X44570000Y17550000D02*
X43750000Y17550000D01*
X43750000Y18370000D01*
X44570000Y18370000D01*
X44570000Y17550000D01*
X45725000Y17025000D02*
X44825000Y17025000D01*
X44825000Y17025000D02*
X44825000Y17225000D01*
X44825000Y17225000D02*
X45725000Y17225000D01*
X45725000Y17225000D02*
X45725000Y17025000D01*
G36*
X45725000Y17025000D02*
G01*
X44825000Y17025000D01*
X44825000Y17225000D01*
X45725000Y17225000D01*
X45725000Y17025000D01*
G37*
X45725000Y17025000D02*
X44825000Y17025000D01*
X44825000Y17225000D01*
X45725000Y17225000D01*
X45725000Y17025000D01*
X43450000Y16430000D02*
X42630000Y16430000D01*
X42630000Y16430000D02*
X42630000Y17250000D01*
X42630000Y17250000D02*
X43450000Y17250000D01*
X43450000Y17250000D02*
X43450000Y16430000D01*
G36*
X43450000Y16430000D02*
G01*
X42630000Y16430000D01*
X42630000Y17250000D01*
X43450000Y17250000D01*
X43450000Y16430000D01*
G37*
X43450000Y16430000D02*
X42630000Y16430000D01*
X42630000Y17250000D01*
X43450000Y17250000D01*
X43450000Y16430000D01*
G04 #@! TO.C,Q4*
X41885900Y27488250D02*
X41885900Y29131750D01*
X41885900Y29131750D02*
X43214100Y29131750D01*
X43214100Y29131750D02*
X43214100Y27488250D01*
X43214100Y27488250D02*
X41885900Y27488250D01*
G36*
X43214100Y27488250D02*
G01*
X41885900Y27488250D01*
X41885900Y29131750D01*
X43214100Y29131750D01*
X43214100Y27488250D01*
G37*
X43214100Y27488250D02*
X41885900Y27488250D01*
X41885900Y29131750D01*
X43214100Y29131750D01*
X43214100Y27488250D01*
G04 #@! TD*
D11*
G04 #@! TO.C,C27*
X16750000Y31170000D03*
X16750000Y32130000D03*
G04 #@! TD*
D12*
G04 #@! TO.C,C23*
X17140000Y38000000D03*
X18100000Y38000000D03*
G04 #@! TD*
D13*
G04 #@! TO.C,C16*
X22000000Y12480000D03*
X22000000Y11520000D03*
G04 #@! TD*
G04 #@! TO.C,C15*
X20600000Y12480000D03*
X20600000Y11520000D03*
G04 #@! TD*
D11*
G04 #@! TO.C,C14*
X3800000Y10320000D03*
X3800000Y11280000D03*
G04 #@! TD*
G04 #@! TO.C,C4*
X5700000Y24080000D03*
X5700000Y23120000D03*
G04 #@! TD*
D14*
G04 #@! TO.C,C5*
X6770000Y21650000D03*
X7730000Y21650000D03*
G04 #@! TD*
D11*
G04 #@! TO.C,C24*
X5700000Y14380000D03*
X5700000Y13420000D03*
G04 #@! TD*
D15*
G04 #@! TO.C,D6*
X1012500Y29710000D03*
X2587500Y29710000D03*
G04 #@! TD*
G04 #@! TO.C,D3*
X1012500Y25300000D03*
X2587500Y25300000D03*
G04 #@! TD*
D16*
G04 #@! TO.C,Q2*
X19312500Y26600000D03*
X17412500Y26600000D03*
X18362500Y24725000D03*
G04 #@! TD*
D17*
G04 #@! TO.C,R9*
X9590000Y14850000D03*
X10610000Y14850000D03*
G04 #@! TD*
D18*
G04 #@! TO.C,R11*
X10610000Y13850000D03*
X9590000Y13850000D03*
G04 #@! TD*
G04 #@! TO.C,R2*
X20010000Y39000000D03*
X18990000Y39000000D03*
G04 #@! TD*
G04 #@! TO.C,R18*
X4810000Y26000000D03*
X3790000Y26000000D03*
G04 #@! TD*
G04 #@! TO.C,R19*
X4810000Y28000000D03*
X3790000Y28000000D03*
G04 #@! TD*
G04 #@! TO.C,R14*
X4810000Y25000000D03*
X3790000Y25000000D03*
G04 #@! TD*
D19*
G04 #@! TO.C,R31*
X6700000Y14410000D03*
X6700000Y13390000D03*
G04 #@! TD*
D17*
G04 #@! TO.C,R35*
X48190000Y15450000D03*
X49210000Y15450000D03*
G04 #@! TD*
D14*
G04 #@! TO.C,C34*
X10620000Y9300000D03*
X11580000Y9300000D03*
G04 #@! TD*
G04 #@! TO.C,C35*
X12770000Y9300000D03*
X13730000Y9300000D03*
G04 #@! TD*
D20*
G04 #@! TO.C,J3*
X4162500Y21200000D03*
X4162500Y20550000D03*
X4162500Y19900000D03*
X4162500Y19250000D03*
X4162500Y18600000D03*
D21*
X1462500Y20900000D03*
X1462500Y18900000D03*
G04 #@! TD*
D22*
G04 #@! TO.C,C8*
X25800000Y7675000D03*
X27700000Y7675000D03*
G04 #@! TD*
D23*
G04 #@! TO.C,C9*
X32100000Y7675000D03*
X30200000Y7675000D03*
G04 #@! TD*
D22*
G04 #@! TO.C,C10*
X34200000Y7675000D03*
X36100000Y7675000D03*
G04 #@! TD*
D23*
G04 #@! TO.C,C11*
X40500000Y7675000D03*
X38600000Y7675000D03*
G04 #@! TD*
D17*
G04 #@! TO.C,R24*
X44490000Y26600000D03*
X45510000Y26600000D03*
G04 #@! TD*
D19*
G04 #@! TO.C,R29*
X49200000Y28895000D03*
X49200000Y27875000D03*
G04 #@! TD*
G04 #@! TO.C,R27*
X49200000Y27010000D03*
X49200000Y25990000D03*
G04 #@! TD*
D24*
G04 #@! TO.C,C46*
X39900000Y26950000D03*
X39900000Y28850000D03*
G04 #@! TD*
D23*
G04 #@! TO.C,C47*
X38250000Y22500000D03*
X36350000Y22500000D03*
G04 #@! TD*
D25*
G04 #@! TO.C,L1*
X44177500Y11850000D03*
X48677500Y11850000D03*
G04 #@! TD*
D26*
G04 #@! TO.C,Q5*
X47737500Y27050000D03*
X47737500Y28950000D03*
X45862500Y28000000D03*
G04 #@! TD*
D13*
G04 #@! TO.C,C48*
X39550000Y17270000D03*
X39550000Y18230000D03*
G04 #@! TD*
G04 #@! TO.C,C32*
X46600000Y15435000D03*
X46600000Y16395000D03*
G04 #@! TD*
D11*
G04 #@! TO.C,C42*
X40600000Y18230000D03*
X40600000Y17270000D03*
G04 #@! TD*
D27*
G04 #@! TO.C,R38*
X46600000Y17375000D03*
X46600000Y18395000D03*
G04 #@! TD*
D18*
G04 #@! TO.C,R39*
X40610000Y19250000D03*
X39590000Y19250000D03*
G04 #@! TD*
D28*
G04 #@! TO.C,U8*
X45325000Y18150000D03*
D29*
X44600000Y19125000D03*
X44100000Y19125000D03*
X43600000Y19125000D03*
X43100000Y19125000D03*
X42600000Y19125000D03*
D30*
X41875000Y18150000D03*
X41875000Y16650000D03*
D31*
X42600000Y15675000D03*
X43100000Y15675000D03*
X43600000Y15675000D03*
X44100000Y15675000D03*
X44600000Y15675000D03*
D28*
X45325000Y16650000D03*
G04 #@! TD*
D32*
G04 #@! TO.C,U1*
X33140000Y12425000D03*
X33140000Y10275000D03*
D33*
X30290000Y13300000D03*
X30290000Y12650000D03*
X30290000Y12000000D03*
X30295000Y11350000D03*
X30290000Y10700000D03*
X30290000Y10050000D03*
X30290000Y9400000D03*
X35990000Y9400000D03*
X35990000Y10050000D03*
X35990000Y10700000D03*
X35990000Y11350000D03*
X35990000Y12000000D03*
X35990000Y12650000D03*
X35990000Y13300000D03*
G04 #@! TD*
D34*
G04 #@! TO.C,R28*
X39196429Y39396429D03*
X39917677Y40117677D03*
G04 #@! TD*
D35*
G04 #@! TO.C,R26*
X41567731Y37553517D03*
X40846483Y36832269D03*
G04 #@! TD*
D17*
G04 #@! TO.C,R1*
X4190000Y30250000D03*
X5210000Y30250000D03*
G04 #@! TD*
D18*
G04 #@! TO.C,R25*
X20010000Y40000000D03*
X18990000Y40000000D03*
G04 #@! TD*
G04 #@! TO.C,R32*
X20010000Y38000000D03*
X18990000Y38000000D03*
G04 #@! TD*
D34*
G04 #@! TO.C,R30*
X41553590Y36125162D03*
X42274838Y36846410D03*
G04 #@! TD*
D12*
G04 #@! TO.C,C36*
X8680000Y14100000D03*
X7720000Y14100000D03*
G04 #@! TD*
D36*
G04 #@! TO.C,SW1*
X6400000Y31550000D03*
X6400000Y35650000D03*
X4800000Y35650000D03*
X4800000Y31550000D03*
D37*
X7025000Y33600000D03*
G04 #@! TD*
D18*
G04 #@! TO.C,R16*
X4810000Y27000000D03*
X3790000Y27000000D03*
G04 #@! TD*
D15*
G04 #@! TO.C,D5*
X1012500Y26770000D03*
X2587500Y26770000D03*
G04 #@! TD*
D36*
G04 #@! TO.C,SW2*
X2700000Y35650000D03*
X2700000Y31550000D03*
X1100000Y35650000D03*
X1100000Y31550000D03*
D37*
X3325000Y33600000D03*
G04 #@! TD*
D13*
G04 #@! TO.C,C25*
X22800000Y22220000D03*
X22800000Y23180000D03*
G04 #@! TD*
D11*
G04 #@! TO.C,C26*
X21800000Y23165000D03*
X21800000Y22205000D03*
G04 #@! TD*
D36*
G04 #@! TO.C,SW3*
X10100000Y35650000D03*
X10100000Y31550000D03*
X8500000Y31550000D03*
X8500000Y35650000D03*
D37*
X10725000Y33600000D03*
G04 #@! TD*
D17*
G04 #@! TO.C,R33*
X8590000Y9300000D03*
X9610000Y9300000D03*
G04 #@! TD*
D23*
G04 #@! TO.C,C30*
X42100000Y9700000D03*
X40200000Y9700000D03*
G04 #@! TD*
G04 #@! TO.C,C31*
X42100000Y11600000D03*
X40200000Y11600000D03*
G04 #@! TD*
D38*
G04 #@! TO.C,Y1*
X25680357Y12617778D03*
X24831829Y11769250D03*
X23983301Y10920722D03*
G04 #@! TD*
D18*
G04 #@! TO.C,R21*
X20110000Y21900000D03*
X19090000Y21900000D03*
G04 #@! TD*
D17*
G04 #@! TO.C,R23*
X19090000Y22900000D03*
X20110000Y22900000D03*
G04 #@! TD*
D34*
G04 #@! TO.C,R22*
X23189376Y12689376D03*
X23910624Y13410624D03*
G04 #@! TD*
D17*
G04 #@! TO.C,R5*
X17190000Y28600000D03*
X18210000Y28600000D03*
G04 #@! TD*
D18*
G04 #@! TO.C,R6*
X20110000Y28600000D03*
X19090000Y28600000D03*
G04 #@! TD*
D39*
G04 #@! TO.C,Q1*
X17850000Y30115000D03*
X19750000Y30115000D03*
X18800000Y31990000D03*
G04 #@! TD*
D11*
G04 #@! TO.C,C17*
X24900000Y21765000D03*
X24900000Y20805000D03*
G04 #@! TD*
G04 #@! TO.C,C18*
X23900000Y21780000D03*
X23900000Y20820000D03*
G04 #@! TD*
D14*
G04 #@! TO.C,C19*
X21455000Y21200000D03*
X22415000Y21200000D03*
G04 #@! TD*
D40*
G04 #@! TO.C,U5*
X22080000Y16145000D03*
X22080000Y17175000D03*
X22080000Y18205000D03*
X20020000Y16145000D03*
X20020000Y18205000D03*
X20020000Y17175000D03*
X21050000Y16145000D03*
X21050000Y18205000D03*
X21050000Y17175000D03*
D41*
X19300000Y14737500D03*
X19800000Y14737500D03*
X20300000Y14737500D03*
X20800000Y14737500D03*
X21300000Y14737500D03*
X21800000Y14737500D03*
X22300000Y14737500D03*
X22800000Y14737500D03*
D42*
X23487500Y15425000D03*
X23487500Y15925000D03*
X23487500Y16425000D03*
X23487500Y16925000D03*
X23487500Y17425000D03*
X23487500Y17925000D03*
X23487500Y18425000D03*
X23487500Y18925000D03*
D41*
X22800000Y19612500D03*
X22300000Y19612500D03*
X21800000Y19612500D03*
X21300000Y19612500D03*
X20800000Y19612500D03*
X20300000Y19612500D03*
X19800000Y19612500D03*
X19300000Y19612500D03*
D42*
X18612500Y18925000D03*
X18612500Y18425000D03*
X18612500Y17925000D03*
X18612500Y17425000D03*
X18612500Y16925000D03*
X18612500Y16425000D03*
X18612500Y15925000D03*
X18612500Y15425000D03*
G04 #@! TD*
D12*
G04 #@! TO.C,C33*
X49180000Y16500000D03*
X48220000Y16500000D03*
G04 #@! TD*
D43*
G04 #@! TO.C,D1*
X11800000Y16137500D03*
X11800000Y14562500D03*
G04 #@! TD*
D15*
G04 #@! TO.C,D4*
X1012500Y28240000D03*
X2587500Y28240000D03*
G04 #@! TD*
D18*
G04 #@! TO.C,R15*
X9510000Y30300000D03*
X8490000Y30300000D03*
G04 #@! TD*
D44*
G04 #@! TO.C,C2*
X17000000Y12550000D03*
X17000000Y10650000D03*
G04 #@! TD*
D17*
G04 #@! TO.C,R3*
X6290000Y30300000D03*
X7310000Y30300000D03*
G04 #@! TD*
D14*
G04 #@! TO.C,C45*
X10920000Y23600000D03*
X11880000Y23600000D03*
G04 #@! TD*
D39*
G04 #@! TO.C,Q3*
X36450000Y16262500D03*
X38350000Y16262500D03*
X37400000Y18137500D03*
G04 #@! TD*
D13*
G04 #@! TO.C,C20*
X38200000Y19720000D03*
X38200000Y20680000D03*
G04 #@! TD*
D14*
G04 #@! TO.C,C7*
X7720000Y15100000D03*
X8680000Y15100000D03*
G04 #@! TD*
D45*
G04 #@! TO.C,U7*
X22000000Y39400000D03*
X22000000Y37400000D03*
X22000000Y35400000D03*
X22000000Y33400000D03*
X22000000Y31400000D03*
X22000000Y29400000D03*
X22000000Y27400000D03*
X22000000Y25400000D03*
D46*
X24600000Y23900000D03*
X26600000Y23900000D03*
X28600000Y23900000D03*
X30600000Y23900000D03*
X32600000Y23900000D03*
X34600000Y23900000D03*
D45*
X37200000Y25400000D03*
X37200000Y27400000D03*
X37200000Y29400000D03*
X37200000Y31400000D03*
X37200000Y33400000D03*
X37200000Y35400000D03*
X37200000Y37400000D03*
X37200000Y39400000D03*
G04 #@! TD*
D14*
G04 #@! TO.C,C22*
X16320000Y45100000D03*
X17280000Y45100000D03*
G04 #@! TD*
D34*
G04 #@! TO.C,R13*
X39432269Y38246483D03*
X40153517Y38967731D03*
G04 #@! TD*
D47*
G04 #@! TO.C,U9*
X13137500Y10750000D03*
X13137500Y11700000D03*
X13137500Y12650000D03*
X10862500Y12650000D03*
X10862500Y10750000D03*
G04 #@! TD*
D48*
G04 #@! TO.C,U4*
X18962500Y42250000D03*
D49*
X18962500Y42750000D03*
X18962500Y43250000D03*
D50*
X18962500Y43750000D03*
D51*
X18300000Y43912500D03*
D52*
X17800000Y43912500D03*
D53*
X17300000Y43912500D03*
D54*
X16637500Y43750000D03*
D49*
X16637500Y43250000D03*
X16637500Y42750000D03*
D55*
X16637500Y42250000D03*
D56*
X17300000Y42087500D03*
D52*
X17800000Y42087500D03*
D57*
X18300000Y42087500D03*
G04 #@! TD*
D58*
G04 #@! TO.C,Q4*
X43525000Y26550000D03*
D59*
X41135000Y27950000D03*
D60*
X41575000Y29450000D03*
X43525000Y29450000D03*
D59*
X43965000Y27950000D03*
D60*
X42875000Y29450000D03*
X42225000Y29450000D03*
D58*
X42875000Y26550000D03*
X42225000Y26550000D03*
X41575000Y26550000D03*
G04 #@! TD*
D12*
G04 #@! TO.C,C38*
X40580000Y16200000D03*
X39620000Y16200000D03*
G04 #@! TD*
D24*
G04 #@! TO.C,C29*
X38350000Y11700000D03*
X38350000Y13600000D03*
G04 #@! TD*
D61*
G04 #@! TO.C,D7*
X7750000Y23100000D03*
X9950000Y23100000D03*
G04 #@! TD*
D62*
G04 #@! TO.C,SW4*
X15200000Y39900000D03*
X12800000Y39900000D03*
X15200000Y37900000D03*
X12800000Y37900000D03*
X15200000Y33900000D03*
X12800000Y33900000D03*
X15200000Y31900000D03*
X12800000Y31900000D03*
G04 #@! TD*
D12*
G04 #@! TO.C,C3*
X35730000Y14600000D03*
X34770000Y14600000D03*
G04 #@! TD*
D39*
G04 #@! TO.C,Q6*
X7200000Y10762500D03*
X9100000Y10762500D03*
X8150000Y12637500D03*
G04 #@! TD*
D23*
G04 #@! TO.C,C28*
X42100000Y13550000D03*
X40200000Y13550000D03*
G04 #@! TD*
D19*
G04 #@! TO.C,R37*
X12400000Y29010000D03*
X12400000Y27990000D03*
G04 #@! TD*
D14*
G04 #@! TO.C,C21*
X18300000Y45100000D03*
X19260000Y45100000D03*
G04 #@! TD*
D19*
G04 #@! TO.C,R17*
X37200000Y20710000D03*
X37200000Y19690000D03*
G04 #@! TD*
D13*
G04 #@! TO.C,C6*
X7792500Y16775000D03*
X7792500Y17735000D03*
G04 #@! TD*
D18*
G04 #@! TO.C,R7*
X7812500Y19675000D03*
X6792500Y19675000D03*
G04 #@! TD*
D11*
G04 #@! TO.C,C12*
X6792500Y17735000D03*
X6792500Y16775000D03*
G04 #@! TD*
D14*
G04 #@! TO.C,C39*
X10420000Y30300000D03*
X11380000Y30300000D03*
G04 #@! TD*
D18*
G04 #@! TO.C,R4*
X13085000Y22650000D03*
X12065000Y22650000D03*
G04 #@! TD*
D14*
G04 #@! TO.C,C13*
X6620000Y20650000D03*
X7580000Y20650000D03*
G04 #@! TD*
D12*
G04 #@! TO.C,C37*
X15380000Y29000000D03*
X14420000Y29000000D03*
G04 #@! TD*
D27*
G04 #@! TO.C,R20*
X36200000Y19690000D03*
X36200000Y20710000D03*
G04 #@! TD*
D63*
G04 #@! TO.C,U11*
X7150000Y24762500D03*
X8100000Y24762500D03*
X9050000Y24762500D03*
X9050000Y27037500D03*
X7150000Y27037500D03*
G04 #@! TD*
D27*
G04 #@! TO.C,R10*
X3800000Y12170000D03*
X3800000Y13190000D03*
G04 #@! TD*
D64*
G04 #@! TO.C,U2*
X10300000Y18950000D03*
X11550000Y20200000D03*
X11550000Y18950000D03*
X10300000Y20200000D03*
D65*
X11925000Y21512500D03*
X11425000Y21512500D03*
X10925000Y21512500D03*
X10425000Y21512500D03*
X9925000Y21512500D03*
D66*
X8987500Y20575000D03*
X8987500Y20075000D03*
X8987500Y19575000D03*
X8987500Y19075000D03*
X8987500Y18575000D03*
D65*
X9925000Y17637500D03*
X10425000Y17637500D03*
X10925000Y17637500D03*
X11425000Y17637500D03*
X11925000Y17637500D03*
D66*
X12862500Y18575000D03*
X12862500Y19075000D03*
X12862500Y19575000D03*
X12862500Y20075000D03*
X12862500Y20575000D03*
G04 #@! TD*
D35*
G04 #@! TO.C,R12*
X40860624Y38260624D03*
X40139376Y37539376D03*
G04 #@! TD*
D44*
G04 #@! TO.C,C1*
X15000000Y12550000D03*
X15000000Y10650000D03*
G04 #@! TD*
D12*
G04 #@! TO.C,C41*
X5080000Y29300000D03*
X4120000Y29300000D03*
G04 #@! TD*
D17*
G04 #@! TO.C,R36*
X48200000Y18150000D03*
X49220000Y18150000D03*
G04 #@! TD*
D43*
G04 #@! TO.C,D2*
X13270000Y16137500D03*
X13270000Y14562500D03*
G04 #@! TD*
D13*
G04 #@! TO.C,C40*
X10500000Y28020000D03*
X10500000Y28980000D03*
G04 #@! TD*
D17*
G04 #@! TO.C,R8*
X6802500Y18675000D03*
X7822500Y18675000D03*
G04 #@! TD*
D13*
G04 #@! TO.C,C44*
X11400000Y28020000D03*
X11400000Y28980000D03*
G04 #@! TD*
D18*
G04 #@! TO.C,R34*
X40510000Y15000000D03*
X39490000Y15000000D03*
G04 #@! TD*
D47*
G04 #@! TO.C,U10*
X13037500Y24850000D03*
X13037500Y25800000D03*
X13037500Y26750000D03*
X10762500Y26750000D03*
X10762500Y24850000D03*
G04 #@! TD*
D67*
G04 #@! TO.C,U6*
X18350000Y36650000D03*
X17850000Y36650000D03*
X17350000Y36650000D03*
X16850000Y36650000D03*
X16850000Y33550000D03*
X17350000Y33550000D03*
X17850000Y33550000D03*
X18350000Y33550000D03*
G04 #@! TD*
D27*
G04 #@! TO.C,R40*
X13400000Y27990000D03*
X13400000Y29010000D03*
G04 #@! TD*
D18*
G04 #@! TO.C,R41*
X49210000Y19200000D03*
X48190000Y19200000D03*
G04 #@! TD*
D44*
G04 #@! TO.C,C43*
X15500000Y26950000D03*
X15500000Y25050000D03*
G04 #@! TD*
M02*
