M48
INCH,TZ
T1C0.0118
T2C0.0118
T3C0.0197
T4C0.0236
T5C0.0335
T6C0.0354
T7C0.0394
T8C0.1063
T9C0.1260
%
G90
G05
T1
X754Y13414
X787Y14606
X866Y12913
X1850Y5197
X1988Y8425
X2185Y8740
X2224Y8030
X2244Y3622
X2283Y4528
X2320Y7463
X2323Y11102
X2323Y10709
X2323Y10315
X2323Y9921
X2343Y8425
X2402Y12835
X2638Y6063
X2756Y11299
X3031Y11526
X3071Y11063
X3150Y12874
X3307Y11299
X3307Y10197
X3465Y6850
X3563Y8898
X3583Y4764
X3622Y11358
X3661Y12992
X3740Y6152
X4016Y10157
X4016Y6339
X4134Y7441
X4272Y8957
X4331Y4606
X4567Y12992
X4606Y7559
X4661Y3069
X4679Y972
X4685Y1974
X4803Y14488
X4882Y11772
X5039Y15709
X5039Y13346
X5079Y16260
X5236Y8346
X5512Y15315
X5512Y8858
X5512Y6575
X5630Y10984
X5945Y10984
X5984Y15354
X5984Y13346
X6024Y5354
X6063Y14488
X6063Y8858
X6142Y7126
X6260Y10984
X6378Y6890
X6447Y6063
X6457Y15315
X6517Y16339
X6614Y11732
X6614Y8858
X6654Y13858
X6683Y5827
X6732Y15709
X6831Y7510
X6850Y15315
X6919Y5591
X7008Y12598
X7008Y8976
X7067Y7746
X7087Y8622
X7156Y5354
X7224Y10866
X7244Y15354
X7303Y7982
X7392Y5118
X7441Y14134
X7539Y8219
X7628Y4882
X7638Y13189
X7874Y10965
X7913Y12953
X7953Y7096
X7953Y6427
X8130Y5217
X8287Y6762
X8583Y3661
X8622Y7096
X8622Y6427
X8642Y5217
X8937Y15512
X9409Y10315
X9409Y3622
X9449Y11969
X9646Y10079
X9843Y10512
X9882Y11654
X9882Y11102
X10039Y6575
X10039Y6024
X10157Y8819
X10453Y8307
X10512Y13228
X10650Y4321
X10650Y3848
X10866Y14331
X10866Y8701
X10965Y4321
X10965Y3848
X11181Y15709
X11280Y4321
X11280Y3848
X11378Y8701
X12693Y5098
X12693Y4685
X12693Y4272
X12693Y3858
X13047Y4882
X13047Y4469
X13047Y4055
X13150Y12008
X13268Y15591
X13402Y5098
X13402Y4685
X13402Y4272
X13402Y3858
X13543Y15079
X13543Y10984
X13819Y13937
X13819Y13150
X13937Y6181
X14449Y5669
X14567Y4980
X14567Y4596
X14705Y3760
X14705Y3445
X14705Y3130
X14724Y6535
X14843Y5787
X14931Y4685
X15118Y7244
X15236Y5827
X15256Y4350
X15315Y14409
X15394Y8150
X15433Y16102
X15472Y5079
X15551Y11043
X15569Y16774
X15709Y11752
X15827Y8189
X16024Y16102
X16063Y15591
X16181Y7835
X16217Y16461
X16299Y6850
X16417Y7500
X16417Y6201
X16496Y5394
X16496Y4606
X16496Y3819
X16535Y3150
X16654Y6850
X16654Y5000
X16654Y4213
X16693Y17087
X17047Y14291
X17362Y13504
X17638Y7953
X17756Y6850
X18110Y6850
X18228Y11417
X18268Y10630
X18268Y5394
X18268Y4685
X18268Y3976
X18780Y11024
X18948Y5374
X18948Y4665
X18948Y3957
X18984Y6819
X19164Y5020
X19164Y4311
X19252Y14173
X19292Y15104
X19381Y5374
X19381Y4665
X19381Y3957
X19449Y9882
T2
X16969Y7047
X16969Y6654
X17362Y7047
X17362Y6654
T3
X1024Y15748
X1024Y1969
X1300Y16416
X1300Y15080
X1300Y2637
X1300Y1300
X1969Y16693
X1969Y14803
X1969Y2913
X1969Y1024
X2637Y16416
X2637Y15080
X2637Y2637
X2637Y1300
X2913Y15748
X2913Y1969
X16772Y15748
X16772Y1969
X17048Y16416
X17048Y15080
X17048Y2637
X17048Y1300
X17717Y16693
X17717Y14803
X17717Y2913
X17717Y1024
X18385Y16416
X18385Y15080
X18385Y2637
X18385Y1300
X18661Y15748
X18661Y1969
T5
X1639Y8819
X1639Y6850
T6
X591Y5606
X591Y4606
X591Y3606
T7
X4026Y2717
X4026Y1717
X4026Y717
X6026Y2717
X6026Y1717
X6026Y717
X7026Y2717
X7026Y1717
X7026Y717
X8026Y2717
X8026Y1717
X8026Y717
X9026Y2717
X9026Y1717
X9026Y717
X10906Y1535
X11307Y7795
X11307Y6795
X11890Y1535
X12307Y7795
X12307Y6795
X13307Y7795
X13307Y6795
X14213Y1535
X15197Y1535
T8
X16476Y12953
X16476Y9016
X18445Y12953
X18445Y9016
T9
X1969Y15748
X1969Y1969
X17717Y15748
X17717Y1969
T4
G00X438Y9213
M15
G01X714Y9213
M16
G05
G00X714Y6457
M15
G01X438Y6457
M16
G05
T0
M30
