G04 #@! TF.GenerationSoftware,KiCad,Pcbnew,(5.99.0-10089-gf88d39b4f0)*
G04 #@! TF.CreationDate,2021-04-05T01:24:08-04:00*
G04 #@! TF.ProjectId,BattlebotsController,42617474-6c65-4626-9f74-73436f6e7472,rev?*
G04 #@! TF.SameCoordinates,PXb795120PY57bcf00*
G04 #@! TF.FileFunction,Soldermask,Bot*
G04 #@! TF.FilePolarity,Negative*
%FSLAX46Y46*%
G04 Gerber Fmt 4.6, Leading zero omitted, Abs format (unit mm)*
G04 Created by KiCad (PCBNEW (5.99.0-10089-gf88d39b4f0)) date 2021-04-05 01:24:08*
%MOMM*%
%LPD*%
G01*
G04 APERTURE LIST*
G04 Aperture macros list*
%AMRoundRect*
0 Rectangle with rounded corners*
0 $1 Rounding radius*
0 $2 $3 $4 $5 $6 $7 $8 $9 X,Y pos of 4 corners*
0 Add a 4 corners polygon primitive as box body*
4,1,4,$2,$3,$4,$5,$6,$7,$8,$9,$2,$3,0*
0 Add four circle primitives for the rounded corners*
1,1,$1+$1,$2,$3*
1,1,$1+$1,$4,$5*
1,1,$1+$1,$6,$7*
1,1,$1+$1,$8,$9*
0 Add four rect primitives between the rounded corners*
20,1,$1+$1,$2,$3,$4,$5,0*
20,1,$1+$1,$4,$5,$6,$7,0*
20,1,$1+$1,$6,$7,$8,$9,0*
20,1,$1+$1,$8,$9,$2,$3,0*%
%AMFreePoly0*
4,1,27,0.500000,-0.750000,0.000000,-0.750000,0.000000,-0.747953,-0.027911,-0.749220,-0.127723,-0.733412,-0.222318,-0.697856,-0.307831,-0.644005,-0.380769,-0.574060,-0.438153,-0.490877,-0.477639,-0.397854,-0.497614,-0.298791,-0.497444,-0.250000,-0.500000,-0.250000,-0.500000,0.250000,-0.497444,0.250000,-0.497261,0.302264,-0.476595,0.401185,-0.436461,0.493930,-0.378498,0.576710,-0.305073,0.646145,
-0.219186,0.699397,-0.124345,0.734292,-0.024425,0.749403,0.000000,0.748123,0.000000,0.750000,0.500000,0.750000,0.500000,-0.750000,0.500000,-0.750000,$1*%
%AMFreePoly1*
4,1,24,0.000000,0.748123,0.076493,0.744114,0.174286,0.718641,0.264960,0.674024,0.344810,0.612086,0.410575,0.535357,0.459568,0.446971,0.489788,0.350539,0.500000,0.250000,0.500000,-0.250000,0.499988,-0.253491,0.489074,-0.353956,0.458181,-0.450175,0.408572,-0.538216,0.342274,-0.614484,0.261993,-0.675863,0.171010,-0.719846,0.073042,-0.744636,0.000000,-0.747953,0.000000,-0.750000,
-0.500000,-0.750000,-0.500000,0.750000,0.000000,0.750000,0.000000,0.748123,0.000000,0.748123,$1*%
G04 Aperture macros list end*
%ADD10R,1.700000X1.700000*%
%ADD11O,1.700000X1.700000*%
%ADD12C,0.800000*%
%ADD13C,6.400000*%
%ADD14O,1.900000X1.200000*%
%ADD15C,1.450000*%
%ADD16R,3.800000X3.800000*%
%ADD17C,3.800000*%
%ADD18RoundRect,0.250000X-0.600000X-0.750000X0.600000X-0.750000X0.600000X0.750000X-0.600000X0.750000X0*%
%ADD19O,1.700000X2.000000*%
%ADD20RoundRect,0.250200X-0.649800X0.649800X-0.649800X-0.649800X0.649800X-0.649800X0.649800X0.649800X0*%
%ADD21C,1.800000*%
%ADD22C,1.500000*%
%ADD23FreePoly0,0.000000*%
%ADD24FreePoly1,0.000000*%
%ADD25FreePoly0,180.000000*%
%ADD26FreePoly1,180.000000*%
G04 APERTURE END LIST*
D10*
G04 #@! TO.C,J4*
X33800000Y19800000D03*
D11*
X33800000Y17260000D03*
X31260000Y19800000D03*
X31260000Y17260000D03*
X28720000Y19800000D03*
X28720000Y17260000D03*
G04 #@! TD*
D10*
G04 #@! TO.C,J5*
X22925200Y6900200D03*
D11*
X20385200Y6900200D03*
X17845200Y6900200D03*
X15305200Y6900200D03*
G04 #@! TD*
D10*
G04 #@! TO.C,J7*
X22925200Y1820200D03*
D11*
X20385200Y1820200D03*
X17845200Y1820200D03*
X15305200Y1820200D03*
G04 #@! TD*
D12*
G04 #@! TO.C,MH1*
X45000000Y7400000D03*
X46697056Y3302944D03*
X42600000Y5000000D03*
X45000000Y2600000D03*
X43302944Y3302944D03*
X43302944Y6697056D03*
X47400000Y5000000D03*
D13*
X45000000Y5000000D03*
D12*
X46697056Y6697056D03*
G04 #@! TD*
G04 #@! TO.C,MH3*
X45000000Y42400000D03*
X46697056Y38302944D03*
D13*
X45000000Y40000000D03*
D12*
X43302944Y41697056D03*
X43302944Y38302944D03*
X46697056Y41697056D03*
X47400000Y40000000D03*
X42600000Y40000000D03*
X45000000Y37600000D03*
G04 #@! TD*
D14*
G04 #@! TO.C,J3*
X1462500Y16400000D03*
X1462500Y23400000D03*
D15*
X4162500Y22400000D03*
X4162500Y17400000D03*
G04 #@! TD*
D12*
G04 #@! TO.C,MH4*
X2600000Y40000000D03*
X3302944Y38302944D03*
X5000000Y37600000D03*
D13*
X5000000Y40000000D03*
D12*
X6697056Y41697056D03*
X3302944Y41697056D03*
X5000000Y42400000D03*
X7400000Y40000000D03*
X6697056Y38302944D03*
G04 #@! TD*
D10*
G04 #@! TO.C,J6*
X22925200Y4360200D03*
D11*
X20385200Y4360200D03*
X17845200Y4360200D03*
X15305200Y4360200D03*
G04 #@! TD*
D16*
G04 #@! TO.C,J8*
X46850000Y32900000D03*
D17*
X41850000Y32900000D03*
G04 #@! TD*
D16*
G04 #@! TO.C,J9*
X46850000Y22900000D03*
D17*
X41850000Y22900000D03*
G04 #@! TD*
D18*
G04 #@! TO.C,J2*
X36100000Y3900000D03*
D19*
X38600000Y3900000D03*
G04 #@! TD*
D18*
G04 #@! TO.C,J1*
X27700000Y3900000D03*
D19*
X30200000Y3900000D03*
G04 #@! TD*
D12*
G04 #@! TO.C,MH2*
X3302944Y3302944D03*
X6697056Y6697056D03*
X5000000Y7400000D03*
X6697056Y3302944D03*
X3302944Y6697056D03*
X2600000Y5000000D03*
X7400000Y5000000D03*
D13*
X5000000Y5000000D03*
D12*
X5000000Y2600000D03*
G04 #@! TD*
D10*
G04 #@! TO.C,J10*
X10225200Y6900200D03*
D11*
X10225200Y4360200D03*
X10225200Y1820200D03*
G04 #@! TD*
D20*
G04 #@! TO.C,U3*
X1500000Y14240000D03*
D21*
X1500000Y11700000D03*
X1500000Y9160000D03*
G04 #@! TD*
D22*
G04 #@! TO.C,TP2*
X16000000Y32000000D03*
G04 #@! TD*
G04 #@! TO.C,TP6*
X14250000Y25750000D03*
G04 #@! TD*
G04 #@! TO.C,TP7*
X26997500Y28800000D03*
G04 #@! TD*
G04 #@! TO.C,TP8*
X26997500Y26300000D03*
G04 #@! TD*
G04 #@! TO.C,TP3*
X13500000Y32000000D03*
G04 #@! TD*
G04 #@! TO.C,TP11*
X15500000Y10750000D03*
G04 #@! TD*
D23*
G04 #@! TO.C,JP3*
X10550000Y28400000D03*
D24*
X11850000Y28400000D03*
G04 #@! TD*
D22*
G04 #@! TO.C,TP1*
X7900000Y19300000D03*
G04 #@! TD*
G04 #@! TO.C,TP4*
X19250000Y25750000D03*
G04 #@! TD*
G04 #@! TO.C,TP10*
X33500000Y34800000D03*
G04 #@! TD*
G04 #@! TO.C,TP5*
X16750000Y25750000D03*
G04 #@! TD*
G04 #@! TO.C,TP9*
X33500000Y32300000D03*
G04 #@! TD*
G04 #@! TO.C,TP13*
X23000000Y10750000D03*
G04 #@! TD*
D23*
G04 #@! TO.C,JP1*
X11475000Y16100000D03*
D24*
X12775000Y16100000D03*
G04 #@! TD*
D25*
G04 #@! TO.C,JP2*
X14650000Y35600000D03*
D26*
X13350000Y35600000D03*
G04 #@! TD*
D22*
G04 #@! TO.C,TP12*
X18000000Y10750000D03*
G04 #@! TD*
M02*
